<svg viewBox="0 0 3000.306 3000.099">
  <defs/>
  <defs>
    <clipPath id="a">
      <path fill="none" d="M168 654h3000.306v3000.099H168z"/>
    </clipPath>
  </defs>
  <g clip-path="url(#a)" style="isolation:isolate" transform="translate(-168 -654)">
    <g opacity=".046">
      <g fill="rgba(0,0,0,0)" stroke="rgba(0,0,0,0)">
        <path stroke="none" d="M0 .099h4242v4769H0z"/>
        <path fill="none" d="M.5.599h4241v4768H.5z"/>
      </g>
      <path fill="rgba(0,0,0,0)" d="M0 0h4242.306v4769.1H0zm1427.226 400.6L177.173 3672.206l4.921 9.538H738.22L1988.274 414.912V400.6zm1038.43 0L1215.6 3672.206l4.922 9.538h556.128L3026.7 414.912V400.6zm103.351 2694.541v586.6h605.341v-586.6z"/>
      <path fill="#5a5a5a" d="M2569.007 3081.276h605.341v605.341h-605.341z"/>
      <path fill="rgba(89,89,89,0.99)" d="M1429.687 413.403l2.461 12.3L179.634 3799.374l-2.461-12.304zM1985.813 413.403l2.461 12.3L735.76 3799.374l-2.461-12.3zM2468.117 413.403l2.461 12.3-1252.514 3373.671-2.461-12.3zM3024.243 413.403l2.461 12.3L1774.19 3799.374l-2.461-12.3z"/>
      <path fill="#5a5a5a" d="M1432.147 413.403h548.747l2.461 7.382L743.141 3757.541l-9.843 41.833H184.555l-2.461-7.383 1240.21-3336.755zM2470.577 413.403h548.747l2.461 7.382-1240.213 3336.756-9.843 41.833h-548.744l-2.461-7.383 1240.21-3336.755z"/>
    </g>
  </g>
</svg>
